<svg width="240" height="240" viewBox="0 0 240 240" fill="none" xmlns="http://www.w3.org/2000/svg">
<path fill-rule="evenodd" clip-rule="evenodd" d="M32.3266 0.332275C38.1922 0.0653076 40.0672 0 54.9966 0C69.9313 0 71.7985 0.0653076 77.6642 0.332275C83.5195 0.600464 87.5185 1.52734 91.0248 2.88745C94.6457 4.29114 97.7051 6.17029 100.764 9.22974C103.824 12.2867 105.703 15.3553 107.112 18.9727C108.465 22.4698 109.393 26.4664 109.668 32.3217C109.931 38.1884 110 40.0629 110 55C110 69.9371 109.931 71.8071 109.668 77.6737C109.393 83.5266 108.465 87.5245 107.112 91.0227C105.703 94.6389 103.824 97.7075 100.764 100.765C97.7085 103.824 94.6445 105.708 91.0282 107.113C87.5288 108.473 83.5275 109.4 77.6723 109.668C71.8055 109.935 69.9367 110 54.9983 110C40.0622 110 38.1887 109.935 32.322 109.668C26.4679 109.4 22.47 108.473 18.9706 107.113C15.3555 105.708 12.2869 103.824 9.23093 100.765C6.17267 97.7075 4.29348 94.6389 2.88753 91.0216C1.52856 87.5245 0.60157 83.5278 0.332294 77.6726C0.0664597 71.8059 0 69.9371 0 55C0 40.0629 0.0687523 38.1871 0.33115 32.3206C0.594692 26.4677 1.52283 22.4698 2.88638 18.9716C4.29578 15.3553 6.17496 12.2867 9.23437 9.22974C12.2915 6.17151 15.3601 4.29224 18.9775 2.88745C22.4746 1.52734 26.4713 0.600464 32.3266 0.332275ZM54.9966 0C54.9994 0 55.0023 0 55.0051 0H54.988C54.9906 0 54.994 0 54.9966 0ZM53.1714 9.91223C52.0592 9.91162 51.0286 9.91125 50.0705 9.91272V9.89893C39.8198 9.9104 37.8535 9.97913 32.7797 10.2083C27.4172 10.4547 24.5056 11.3484 22.5668 12.1046C20.0001 13.1039 18.1668 14.2955 16.2418 16.2205C14.3167 18.1455 13.1228 19.9788 12.1259 22.5455C11.3731 24.4843 10.477 27.3947 10.2318 32.7572C9.96825 38.5551 9.91554 40.2876 9.91554 54.9749C9.91554 69.6621 9.96825 71.4038 10.2318 77.2018C10.4759 82.5642 11.3731 85.4746 12.1259 87.4111C13.1251 89.9789 14.3167 91.8076 16.2418 93.7327C18.1668 95.6577 20.0001 96.8494 22.5668 97.8462C24.5067 98.599 27.4172 99.4951 32.7797 99.7426C38.5777 100.006 40.3183 100.063 55.0046 100.063C69.6897 100.063 71.4314 100.006 77.2294 99.7426C82.5919 99.4973 85.5047 98.6036 87.4412 97.8473C90.009 96.8505 91.8366 95.6588 93.7616 93.7338C95.6867 91.8099 96.8806 89.9823 97.8775 87.4156C98.6303 85.4792 99.5264 82.5688 99.7716 77.2063C100.035 71.4084 100.092 69.6667 100.092 54.9886C100.092 40.3105 100.035 38.5688 99.7716 32.7709C99.5275 27.4084 98.6303 24.498 97.8775 22.5615C96.8783 19.9949 95.6867 18.1615 93.7616 16.2366C91.8378 14.3115 90.0078 13.1199 87.4412 12.123C85.5024 11.3701 82.5919 10.4741 77.2294 10.2289C71.4303 9.96533 69.6897 9.91272 55.0046 9.91272C54.3699 9.91272 53.7592 9.91248 53.1714 9.91223Z" transform="translate(65 65)" fill="black"/>
<path fill-rule="evenodd" clip-rule="evenodd" d="M0 28.2448C0 12.647 12.6461 0.000610352 28.2439 0C43.8423 0 56.4856 12.6466 56.4856 28.2448C56.4856 43.843 43.8435 56.4839 28.2451 56.4839C12.6467 56.4839 0 43.843 0 28.2448ZM46.5784 28.2448C46.5784 18.119 38.3696 9.91138 28.2449 9.91138C18.119 9.91138 9.91135 18.119 9.91135 28.2448C9.91135 38.3693 18.119 46.578 28.2449 46.578C38.3696 46.578 46.5784 38.3693 46.5784 28.2448Z" transform="translate(91.76 91.755)" fill="black"/>
<path fill-rule="evenodd" clip-rule="evenodd" d="M6.60007 0.00229167C2.95628 0.00229167 0 2.9551 0 6.6C0 10.2438 2.95628 13.2 6.60007 13.2C10.2439 13.2 13.2001 10.2438 13.2001 6.6C13.2001 2.95625 10.2439 0 6.60007 0V0.00229167Z" transform="translate(142.763 84.0421)" fill="black"/>
</svg>
