<svg width="240" height="240" viewBox="0 0 240 240" fill="none" xmlns="http://www.w3.org/2000/svg">
<path fill-rule="evenodd" clip-rule="evenodd" d="M53.4113 24.3848L53.6497 28.3496L49.6757 27.8641C35.2101 26.0031 22.5726 19.6917 11.8427 9.09181L6.59693 3.83232L5.24575 7.71625C2.38443 16.3742 4.2125 25.5176 10.1736 31.6671C13.3528 35.0656 12.6375 35.5511 7.1533 33.5282C5.24575 32.8809 3.57665 32.3954 3.41769 32.6381C2.86132 33.2045 4.76886 40.5678 6.279 43.4807C8.34551 47.5265 12.558 51.4913 17.1679 53.8379L21.0625 55.6989L16.4526 55.7798C12.0016 55.7798 11.8427 55.8608 12.3196 57.56C13.9092 62.8195 20.1882 68.4026 27.1825 70.8301L32.1104 72.5293L27.8184 75.1185C21.4599 78.8406 13.9887 80.9444 6.51745 81.1063C2.9408 81.1872 0 81.5108 0 81.7536C0 82.5627 9.69669 87.094 15.3398 88.8741C32.2693 94.1336 52.378 91.868 67.4794 82.8864C78.2094 76.4941 88.9393 63.7904 93.9466 51.4913C96.649 44.9372 99.3513 32.9618 99.3513 27.2168C99.3513 23.4947 99.5898 23.0092 104.041 18.5589C106.664 15.9696 109.128 13.1376 109.604 12.3284C110.399 10.791 110.32 10.791 106.266 12.1666C99.5103 14.594 98.5565 14.2704 101.895 10.6292C104.359 8.03991 107.299 3.34683 107.299 1.97127C107.299 1.72853 106.107 2.1331 104.756 2.86134C103.325 3.67049 100.146 4.88422 97.7617 5.61246L93.4697 6.98801L89.5752 4.31781C87.4292 2.86134 84.4089 1.24304 82.8193 0.757548C78.7657 -0.375264 72.5662 -0.213434 68.9101 1.08121C58.9749 4.72239 52.6959 14.1085 53.4113 24.3848Z" transform="translate(65 74)" fill="black"/>
</svg>
