<svg width="240" height="240" viewBox="0 0 240 240" fill="none" xmlns="http://www.w3.org/2000/svg">
<path d="M34.6126 23.8726C34.6126 22.2238 34.114 20.8977 33.1169 19.8941C32.1198 18.8905 30.8023 18.3887 29.1642 18.3887C27.455 18.3887 25.9593 18.9264 24.6773 20.0017C23.3953 21.077 22.7188 22.3672 22.6476 23.8726C22.6476 25.4496 23.3242 26.7399 24.6773 27.7435C26.0305 28.747 27.5261 29.2488 29.1642 29.2488C30.8023 29.2488 32.1198 28.783 33.1169 27.8511C34.114 26.919 34.6126 25.5931 34.6126 23.8726ZM78.8397 54.3021C78.8397 53.2269 78.3411 52.2233 77.344 51.2915C76.3469 50.3598 75.0649 49.9293 73.498 50.001C72.3584 50.001 71.3615 50.467 70.5069 51.3991C69.6525 52.3308 69.1893 53.2987 69.1181 54.3021C69.1181 55.4492 69.5809 56.4528 70.5069 57.3128C71.4327 58.1729 72.4298 58.6391 73.498 58.7107C75.0649 58.7107 76.3467 58.2807 77.344 57.4203C78.3411 56.5602 78.8397 55.5206 78.8397 54.3021ZM64.8451 23.8726C64.8451 22.2238 64.3467 20.8977 63.3496 19.8941C62.3524 18.8906 61.0348 18.3887 59.3968 18.3887C57.6875 18.3887 56.192 18.9264 54.91 20.0017C53.6278 21.077 52.9871 22.3672 52.9871 23.8726C52.9871 25.4496 53.6278 26.7399 54.91 27.7435C56.192 28.7471 57.6875 29.2488 59.3968 29.2488C61.0348 29.2488 62.3523 28.783 63.3496 27.8511C64.3466 26.919 64.8451 25.5931 64.8451 23.8726ZM102.663 54.3021C102.663 53.2269 102.128 52.2233 101.06 51.2915C99.9917 50.3598 98.7097 49.9293 97.2142 50.001C96.1458 50.001 95.1842 50.467 94.3298 51.3991C93.4752 52.3308 93.0121 53.2987 92.9408 54.3021C92.9408 55.4492 93.4038 56.4528 94.3298 57.3128C95.2557 58.1729 96.2172 58.6391 97.2142 58.7107C98.7809 58.7107 100.063 58.2807 101.06 57.4203C102.057 56.5602 102.591 55.5206 102.663 54.3021ZM86.745 30.5391C85.5342 30.3241 84.1455 30.2166 82.5786 30.2166C75.8841 30.2166 69.7236 31.7577 64.0974 34.8401C58.471 37.9224 54.0197 42.1159 50.7438 47.4206C47.4677 52.725 45.8653 58.4599 45.9364 64.6247C45.9364 67.7785 46.3994 70.8253 47.3251 73.7643C45.9008 73.9077 44.5477 73.9791 43.2657 73.9791C42.1975 73.9791 41.2004 73.9433 40.2746 73.8716C39.3489 73.8 38.2449 73.6568 36.9628 73.4417C35.6808 73.2266 34.7906 73.0833 34.2921 73.0116C33.7935 72.94 32.7253 72.7248 31.0872 72.3664C29.4492 72.0081 28.4521 71.8289 28.096 71.8289L13.0332 79.3556L17.3063 66.3451C5.76876 58.173 -1.51638e-09 48.3525 -1.51638e-09 36.8832C-1.51638e-09 30.1449 1.92288 23.9444 5.76876 18.2814C9.61465 12.6185 14.8849 8.13819 21.5795 4.84087C28.274 1.54342 35.5029 -0.0693982 43.2657 0.00228823C50.2451 0.00228823 56.833 1.29264 63.0292 3.87322C69.2252 6.45381 74.4241 10.1097 78.6261 14.8407C82.8281 19.5718 85.5343 24.8044 86.745 30.5391ZM122.105 64.1944C122.105 68.8538 120.752 73.2981 118.046 77.5274C115.34 81.7567 111.636 85.6276 106.936 89.14L110.247 100L98.3895 93.5486C92.407 94.9823 88.0627 95.6991 85.3564 95.6991C78.6619 95.6991 72.5014 94.3011 66.8752 91.5054C61.2486 88.71 56.7975 84.8749 53.5215 80.0004C50.2454 75.1261 48.6073 69.857 48.6073 64.1944C48.6073 58.5311 50.2453 53.2268 53.5215 48.2807C56.7976 43.3346 61.2487 39.5353 66.8752 36.883C72.5015 34.2308 78.6617 32.7972 85.3564 32.5821C91.7662 32.5821 97.7844 34.0158 103.411 36.883C109.037 39.7504 113.559 43.5855 116.978 48.3882C120.396 53.1909 122.105 58.4598 122.105 64.1944Z" transform="translate(59 70)" fill="black"/>
</svg>
