<svg width="240" height="240" viewBox="0 0 240 240" fill="none" xmlns="http://www.w3.org/2000/svg">
<path fill-rule="evenodd" clip-rule="evenodd" d="M1.78845 11.6604C6.25388 3.01645 17.8676 -1.88113 28.1488 0.679414C38.7902 3.30869 44.2279 12.8806 39.8705 22.1947C35.4591 31.6978 22.7831 36.7845 12.0157 33.4679C1.64441 30.2716 -2.76697 20.4762 1.78845 11.6604ZM27.1939 14.7706C26.4377 16.0078 24.7632 16.5921 23.4667 16.0766C22.1704 15.5782 21.7742 14.1863 22.5125 12.9834C23.2687 11.7804 24.8712 11.1961 26.1496 11.6773C27.446 12.1241 27.9142 13.5161 27.1939 14.7706ZM20.2979 23.1913C18.2092 26.3703 13.7258 27.7623 10.3587 26.3016C7.04569 24.8581 6.05539 21.1634 8.14405 18.0529C10.2147 14.9597 14.5361 13.5849 17.8851 14.9254C21.2702 16.3174 22.3505 19.9776 20.2979 23.1913Z" transform="translate(85.5863 125.172)" fill="black"/>
<path fill-rule="evenodd" clip-rule="evenodd" d="M92.0074 34.1384L92.0506 34.1516C99.0846 36.3569 106.913 41.6907 106.896 51.093C106.896 66.6327 84.7292 86.2068 51.4022 86.2068C25.9886 86.2068 0 73.7442 0 53.2641C0 42.5454 6.71274 30.1513 18.2613 18.4752C33.6989 2.86729 51.7066 -4.2444 58.47 2.61082C61.446 5.6367 61.7334 10.8507 59.8227 17.0906C58.8082 20.219 62.731 18.4923 62.731 18.4923C75.2096 13.2098 86.0988 12.9022 90.0723 18.6462C92.2028 21.7234 91.9998 26.0143 90.0385 30.989C89.1498 33.2606 90.3063 33.6158 92.0074 34.1384ZM12.36 58.1535C13.6788 71.6075 31.1962 80.8904 51.4865 78.8559C71.76 76.8387 87.1469 64.2737 85.8111 50.8026C84.5091 37.3486 66.9918 28.0659 46.7014 30.1002C26.4279 32.1346 11.0411 44.6825 12.36 58.1535Z" transform="translate(58 83.7931)" fill="black"/>
<path fill-rule="evenodd" clip-rule="evenodd" d="M3.86929 0.701056C15.3077 -1.58959 27.6993 1.74671 36.1016 10.5107C44.5039 19.2581 46.781 31.1924 43.18 41.6328V41.6494C42.3504 44.0563 39.5967 45.3842 37.0195 44.604C34.4423 43.8239 33.0302 41.2345 33.8598 38.8112C36.4194 31.375 34.7954 22.8932 28.829 16.6687C22.8627 10.4443 14.0544 8.07081 5.9169 9.69739C3.26913 10.2285 0.674281 8.65174 0.109431 6.16187C-0.455419 3.68873 1.22149 1.23218 3.86929 0.701056ZM6.91064 17.6057C12.6772 16.4227 18.938 18.1277 23.1852 22.5989C27.4323 27.0702 28.5673 33.1594 26.7549 38.5006C26.0044 40.6928 23.5513 41.8757 21.2447 41.1799C18.938 40.4666 17.6932 38.1178 18.4255 35.9431C19.3225 33.3334 18.755 30.3584 16.6863 28.1663C14.6177 25.9916 11.5422 25.1564 8.72302 25.7306C6.37976 26.2177 4.05483 24.791 3.54226 22.5468C3.04797 20.3024 4.5491 18.0754 6.91064 17.6057Z" transform="translate(137.31 70)" fill="black"/>
</svg>
